<svg width="343.4462890625px" height="129.22501220703123px" xmlns="http://www.w3.org/2000/svg" viewBox="78.27685546875 10.387493896484386 343.4462890625 129.22501220703123" style="background: rgb(255, 255, 255);" preserveAspectRatio="xMidYMid"><defs><linearGradient id="editing-gradient-gradient" x1="0" x2="1" y1="0.5" y2="0.5" gradientUnits="objectBoundingBox"><stop offset="0" stop-color="#a976c3"></stop><stop offset="1" stop-color="#f5c024"></stop></linearGradient></defs><g><g transform="translate(133.44468688964844, 107.88628387451172)"><path d="M9.14-7.61L9.14-7.61L9.14-7.61Q6.81-4.13 4.58-1.95L4.58-1.95L4.58-1.95Q2.34 0.22 0.25 0.22L0.25 0.22L0.25 0.22Q-0.81 0.22-1.34-0.28L-1.34-0.28L-1.34-0.28Q-2.25-1.09-2.25-1.81L-2.25-1.81L-2.25-1.81Q-2.25-2.53-1.78-2.88L-1.78-2.88L-1.78-2.88Q2.94-6.28 8.69-22.88L8.69-22.88L10.53-28.13L10.53-28.13Q13.72-37.13 15.94-39.28L15.94-39.28L15.94-39.28Q16.72-39.88 17.56-39.88L17.56-39.88L17.56-39.88Q18.41-39.88 19.03-39.61L19.03-39.61L19.03-39.61Q19.66-39.34 20.13-38.94L20.13-38.94L20.13-38.94Q21.19-38 21.19-36.75L21.19-36.75L21.19-36.75Q21.19-36.28 20.75-35.41L20.75-35.41L20.75-35.41Q20.31-34.53 19.75-33.13L19.75-33.13L15.78-22.09L15.78-22.09Q23.38-23.47 28.31-28.38L28.31-28.38L28.31-28.38Q32.94-32.97 32.94-37.81L32.94-37.81L32.94-37.81Q32.94-42.41 28.81-43.84L28.81-43.84L28.81-43.84Q27.41-44.34 25.55-44.34L25.55-44.34L25.55-44.34Q23.69-44.34 21.75-43.88L21.75-43.88L21.75-43.88Q19.81-43.41 17.94-42.66L17.94-42.66L17.94-42.66Q14.16-41.13 11.75-39.06L11.75-39.06L11.75-39.06Q11.13-38.47 10.38-38.47L10.38-38.47L10.38-38.47Q9.63-38.47 8.97-38.78L8.97-38.78L8.97-38.78Q8.31-39.09 7.81-39.59L7.81-39.59L7.81-39.59Q6.66-40.69 6.66-41.83L6.66-41.83L6.66-41.83Q6.66-42.97 7.47-43.88L7.47-43.88L7.47-43.88Q8.28-44.78 9.63-45.52L9.63-45.52L9.63-45.52Q10.97-46.25 12.72-46.83L12.72-46.83L12.72-46.83Q14.47-47.41 16.31-47.81L16.31-47.81L16.31-47.81Q20.06-48.59 23.77-48.59L23.77-48.59L23.77-48.59Q27.47-48.59 30.55-47.67L30.55-47.67L30.55-47.67Q33.63-46.75 35.63-45.19L35.63-45.19L35.63-45.19Q39.66-42.06 39.66-37.25L39.66-37.25L39.66-36.75L39.66-36.75Q39.38-30.84 35.19-26.34L35.19-26.34L35.19-26.34Q31.53-22.44 25.75-20.19L25.75-20.19L25.75-20.19Q20.53-18.13 15.88-18.13L15.88-18.13L15.06-18.13L15.06-18.13Q14.66-18.13 14.28-18.19L14.28-18.19L14.28-18.19Q11.47-11.09 9.14-7.61ZM37.81-10.94L37.81-10.94L37.81-10.94Q37.94-13.66 38.72-16.14L38.72-16.14L38.72-16.14Q39.50-18.63 40.81-20.95L40.81-20.95L40.81-20.95Q42.13-23.28 43.89-25.36L43.89-25.36L43.89-25.36Q45.66-27.44 47.72-29L47.72-29L47.72-29Q52.19-32.34 56.75-32.34L56.75-32.34L56.75-32.34Q62.09-32.34 63.88-27.94L63.88-27.94L63.88-27.94Q64.50-26.44 64.47-24.39L64.47-24.39L64.47-24.39Q64.44-22.34 63.69-20.61L63.69-20.61L63.69-20.61Q62.94-18.88 61.61-17.45L61.61-17.45L61.61-17.45Q60.28-16.03 58.45-14.91L58.45-14.91L58.45-14.91Q56.63-13.78 54.47-13L54.47-13L54.47-13Q50.03-11.44 44.97-11.38L44.97-11.38L44.97-11.38Q44.84-10.94 44.81-10.06L44.81-10.06L44.81-10.06Q44.78-9.19 45-8.11L45-8.11L45-8.11Q45.22-7.03 45.75-6.19L45.75-6.19L45.75-6.19Q46.88-4.31 49-4.31L49-4.31L49-4.31Q52.63-4.31 56.06-6.44L56.06-6.44L56.06-6.44Q57.28-7.16 58.05-7.92L58.05-7.92L58.05-7.92Q58.81-8.69 59.38-8.69L59.38-8.69L59.38-8.69Q59.94-8.69 60.36-8.02L60.36-8.02L60.36-8.02Q60.78-7.34 60.78-6.50L60.78-6.50L60.78-6.50Q60.78-4.84 59.84-3.63L59.84-3.63L59.84-3.63Q55.91 0.31 48.13 0.31L48.13 0.31L48.13 0.31Q43.53 0.31 40.75-2.44L40.75-2.44L40.75-2.44Q37.63-5.56 37.81-10.94ZM56.06-28.19L56.06-28.19L56.06-28.19Q52.78-28.19 49.75-23.69L49.75-23.69L49.75-23.69Q47.19-19.81 45.63-14.50L45.63-14.50L45.63-14.50Q50.84-15.03 54.69-18.63L54.69-18.63L54.69-18.63Q58.22-22 58.22-25.09L58.22-25.09L58.22-25.09Q58.22-28.19 56.06-28.19ZM84.47-8.19L84.47-8.19L84.47-8.19Q85.38-8.19 85.38-6.97L85.38-6.97L85.38-6.97Q85.38-5.94 84.75-4.97L84.75-4.97L84.75-4.97Q83.91-3.16 81.38-1.53L81.38-1.53L81.38-1.53Q78.50 0.31 75.59 0.31L75.59 0.31L75.59 0.31Q70.56 0.31 69.22-4.19L69.22-4.19L69.22-4.19Q67.63-9.53 74-26.84L74-26.84L74-26.84Q70.41-27.16 70.09-28.09L70.09-28.09L70.09-28.09Q70-28.38 70-28.70L70-28.70L70-28.70Q70-29.03 70.30-29.47L70.30-29.47L70.30-29.47Q70.59-29.91 71.06-30.31L71.06-30.31L71.06-30.31Q72.16-31.22 73.28-31.22L73.28-31.22L75.75-31.22L75.75-31.22Q79.13-39.13 80.56-40.22L80.56-40.22L80.56-40.22Q81.25-40.72 82.09-40.72L82.09-40.72L82.09-40.72Q82.94-40.72 83.50-40.50L83.50-40.50L83.50-40.50Q84.06-40.28 84.50-39.88L84.50-39.88L84.50-39.88Q85.50-38.94 85.50-37.78L85.50-37.78L85.50-37.78Q85.50-37.16 85.13-36.34L85.13-36.34L82.81-31.31L83.56-31.31L83.56-31.31Q85.50-31.31 86.69-31.34L86.69-31.34L86.69-31.34Q86.69-31.34 88.47-31.38L88.47-31.38L88.47-31.38Q89.06-31.41 89.95-31.41L89.95-31.41L89.95-31.41Q90.84-31.41 90.84-30.75L90.84-30.75L90.84-30.75Q90.84-26.63 81.09-26.63L81.09-26.63L80.84-26.63L78.72-21.13L78.72-21.13Q75.13-11.38 75.13-7.47L75.13-7.47L75.13-7.47Q75.13-6.38 75.63-5.77L75.63-5.77L75.63-5.77Q76.13-5.16 77.50-5.16L77.50-5.16L77.50-5.16Q78.88-5.16 80-5.63L80-5.63L80-5.63Q81.13-6.09 81.97-6.67L81.97-6.67L81.97-6.67Q82.81-7.25 83.42-7.72L83.42-7.72L83.42-7.72Q84.03-8.19 84.47-8.19ZM109.16-6.81L109.16-6.81L109.16-6.81Q104.41 0.31 98.63 0.31L98.63 0.31L98.63 0.31Q93.41 0.31 91.59-5.25L91.59-5.25L91.59-5.25Q90.97-7.16 90.97-9.94L90.97-9.94L90.97-9.94Q90.97-12.72 91.77-15.52L91.77-15.52L91.77-15.52Q92.56-18.31 93.94-20.81L93.94-20.81L93.94-20.81Q95.31-23.31 97.17-25.42L97.17-25.42L97.17-25.42Q99.03-27.53 101.16-29.06L101.16-29.06L101.16-29.06Q105.59-32.34 109.97-32.34L109.97-32.34L109.97-32.34Q114.34-32.34 116.22-28.25L116.22-28.25L116.22-28.25Q116.59-28.66 116.91-29.08L116.91-29.08L116.91-29.08Q117.22-29.50 117.59-29.88L117.59-29.88L117.59-29.88Q118.41-30.69 119.02-30.69L119.02-30.69L119.02-30.69Q119.63-30.69 120.30-30.47L120.30-30.47L120.30-30.47Q120.97-30.25 121.59-29.88L121.59-29.88L121.59-29.88Q123.13-28.97 122.75-28.19L122.75-28.19L122.75-28.19Q121.03-24.47 119.88-20.88L119.88-20.88L115.25-6.13L115.25-6.13Q109.78 10.66 101.38 15.56L101.38 15.56L101.38 15.56Q99.16 16.88 97.53 17.08L97.53 17.08L97.53 17.08Q95.91 17.28 95.19 17.09L95.19 17.09L95.19 17.09Q94.47 16.91 93.91 16.56L93.91 16.56L93.91 16.56Q92.69 15.78 92.69 15.16L92.69 15.16L92.69 15.16Q92.69 14.06 94.14 13.81L94.14 13.81L94.14 13.81Q95.59 13.56 97.19 12.64L97.19 12.64L97.19 12.64Q98.78 11.72 100.22 10.41L100.22 10.41L100.22 10.41Q106.13 4.94 109.16-6.81ZM99.80-17.66L99.80-17.66L99.80-17.66Q98.97-15.41 98.50-13.05L98.50-13.05L98.50-13.05Q98.03-10.69 98.03-9.19L98.03-9.19L98.03-9.19Q98.03-7.69 98.13-6.91L98.13-6.91L98.13-6.91Q98.22-6.13 98.50-5.53L98.50-5.53L98.50-5.53Q99.13-4.22 100.34-4.22L100.34-4.22L100.34-4.22Q101.56-4.22 102.75-5.08L102.75-5.08L102.75-5.08Q103.94-5.94 105.25-7.44L105.25-7.44L105.25-7.44Q106.56-8.94 107.88-10.97L107.88-10.97L107.88-10.97Q109.19-13 110.38-15.34L110.38-15.34L110.38-15.34Q113-20.53 114.06-25.25L114.06-25.25L114.06-25.25Q113.91-26.13 113-27.03L113-27.03L113-27.03Q111.22-28.75 109.78-28.75L109.78-28.75L109.78-28.75Q108.34-28.75 106.91-27.86L106.91-27.86L106.91-27.86Q105.47-26.97 104.17-25.45L104.17-25.45L104.17-25.45Q102.88-23.94 101.75-21.92L101.75-21.92L101.75-21.92Q100.63-19.91 99.80-17.66ZM124.66-0.75L124.66-0.75L124.66-0.75Q124.03-1.22 123.66-1.80L123.66-1.80L123.66-1.80Q123.28-2.38 123.25-2.80L123.25-2.80L123.25-2.80Q123.22-3.22 123.42-3.83L123.42-3.83L123.42-3.83Q123.63-4.44 123.97-5.31L123.97-5.31L123.97-5.31Q130.34-21 130.34-26.38L130.34-26.38L130.34-26.38Q130.25-27.88 129.31-28.50L129.31-28.50L128.69-28.94L128.69-28.94Q128.41-29.16 128.39-29.70L128.39-29.70L128.39-29.70Q128.38-30.25 128.78-30.75L128.78-30.75L128.78-30.75Q129.19-31.25 129.84-31.63L129.84-31.63L129.84-31.63Q131.19-32.34 132.61-32.34L132.61-32.34L132.61-32.34Q134.03-32.34 134.83-32.03L134.83-32.03L134.83-32.03Q135.63-31.72 136.19-31.19L136.19-31.19L136.19-31.19Q137.38-30.06 137.39-28.81L137.39-28.81L137.39-28.81Q137.41-27.56 137.11-26.28L137.11-26.28L137.11-26.28Q136.81-25 136.41-23.77L136.41-23.77L136.41-23.77Q136-22.53 135.59-21.42L135.59-21.42L135.59-21.42Q135.19-20.31 135.06-19.78L135.06-19.78L135.06-19.78Q134.81-18.69 134.88-18.41L134.88-18.41L134.88-18.41Q135.63-19.06 135.78-19.69L135.78-19.69L137-22L137-22Q141.06-29.31 144.94-31.69L144.94-31.69L144.94-31.69Q146.06-32.34 147.64-32.34L147.64-32.34L147.64-32.34Q149.22-32.34 150.19-31.23L150.19-31.23L150.19-31.23Q151.16-30.13 151.20-28.78L151.20-28.78L151.20-28.78Q151.25-27.44 151.02-26.55L151.02-26.55L151.02-26.55Q150.78-25.66 150.31-24.88L150.31-24.88L150.31-24.88Q149.28-23.13 147.81-23.13L147.81-23.13L147.81-23.13Q147.41-23.13 147.06-23.41L147.06-23.41L146.38-24L146.38-24Q145.34-24.91 144.39-24.91L144.39-24.91L144.39-24.91Q143.44-24.91 142.08-23.66L142.08-23.66L142.08-23.66Q140.72-22.41 139.25-20.44L139.25-20.44L139.25-20.44Q134.31-13.91 131.19-5.81L131.19-5.81L129.81-2.19L129.81-2.19Q129.28-0.84 128.88-0.27L128.88-0.27L128.88-0.27Q128.47 0.31 127.67 0.31L127.67 0.31L127.67 0.31Q126.88 0.31 126.08 0.02L126.08 0.02L126.08 0.02Q125.28-0.28 124.66-0.75ZM174.59-8.31L174.59-8.31L174.59-8.31Q174.59-5.44 176.63-5.44L176.63-5.44L176.63-5.44Q178.03-5.44 178.95-5.88L178.95-5.88L178.95-5.88Q179.88-6.31 180.19-6.31L180.19-6.31L180.19-6.31Q180.84-6.31 180.84-5.63L180.84-5.63L180.84-5.63Q180.84-2.94 178.03-1L178.03-1L178.03-1Q175.06 1.03 171.97 0L171.97 0L171.97 0Q169.94-0.72 168.97-3.09L168.97-3.09L168.97-3.09Q168.50-4.31 168.50-5.31L168.50-5.31L168.50-5.31Q168.50-6.94 168.81-8.75L168.81-8.75L168.81-8.75Q165.91-2.81 161.59-0.56L161.59-0.56L161.59-0.56Q159.88 0.31 157.94 0.31L157.94 0.31L157.94 0.31Q156 0.31 154.58-0.48L154.58-0.48L154.58-0.48Q153.16-1.28 152.16-2.69L152.16-2.69L152.16-2.69Q150.13-5.63 150.31-10.06L150.31-10.06L150.31-10.06Q150.50-15.63 153.59-20.97L153.59-20.97L153.59-20.97Q156.44-25.97 160.78-29.13L160.78-29.13L160.78-29.13Q165.13-32.34 168.91-32.34L168.91-32.34L168.91-32.34Q172.69-32.34 175-28.88L175-28.88L175-28.88Q177.16-32.34 178.81-32.34L178.81-32.34L178.81-32.34Q180.59-32.34 181.50-31.69L181.50-31.69L181.50-31.69Q183.22-30.44 182.72-29.50L182.72-29.50L182.72-29.50Q174.88-13.44 174.66-9.50L174.66-9.50L174.66-9.50Q174.59-8.94 174.59-8.31ZM157.25-8.19L157.25-8.19L157.25-8.19Q157.25-4.44 159.66-4.44L159.66-4.44L159.66-4.44Q161.50-4.44 164.19-7.56L164.19-7.56L164.19-7.56Q168.13-12.16 171.16-19.94L171.16-19.94L171.16-19.94Q172.13-22.38 172.78-24.81L172.78-24.81L172.78-24.81Q172.66-26.94 171-27.94L171-27.94L171-27.94Q170.44-28.28 169.33-28.28L169.33-28.28L169.33-28.28Q168.22-28.28 166.73-27.47L166.73-27.47L166.73-27.47Q165.25-26.66 163.86-25.25L163.86-25.25L163.86-25.25Q162.47-23.84 161.27-21.92L161.27-21.92L161.27-21.92Q160.06-20 159.16-17.75L159.16-17.75L159.16-17.75Q157.25-12.94 157.25-8.19ZM208.88-26.44L208.88-26.44L208.88-26.44Q207.06-26.44 202.25-21.19L202.25-21.19L202.25-21.19Q198.66-17.09 197.03-15.03L197.03-15.03L194.22-11.47L194.22-11.47Q192.41-8.03 191.38-5.75L191.38-5.75L189.69-2.13L189.69-2.13Q189.03-0.78 188.55-0.23L188.55-0.23L188.55-0.23Q188.06 0.31 187.23 0.31L187.23 0.31L187.23 0.31Q186.41 0.31 185.64 0.02L185.64 0.02L185.64 0.02Q184.88-0.28 184.31-0.75L184.31-0.75L184.31-0.75Q183.13-1.75 183.13-2.94L183.13-2.94L183.13-2.94Q183.13-3.41 183.81-4.78L183.81-4.78L185-7.31L185-7.31Q185.56-8.44 186.31-10.19L186.31-10.19L188.06-14.47L188.06-14.47Q191.75-23.69 191.75-26.38L191.75-26.38L191.75-26.38Q191.75-27.81 190.81-28.50L190.81-28.50L190.19-28.94L190.19-28.94Q189.88-29.16 189.88-29.70L189.88-29.70L189.88-29.70Q189.88-30.25 190.30-30.75L190.30-30.75L190.30-30.75Q190.72-31.25 191.41-31.63L191.41-31.63L191.41-31.63Q192.81-32.34 194.23-32.34L194.23-32.34L194.23-32.34Q195.66-32.34 196.47-32.03L196.47-32.03L196.47-32.03Q197.28-31.72 197.88-31.19L197.88-31.19L197.88-31.19Q199.06-30.09 199.06-28.91L199.06-28.91L199.06-28.91Q199.06-27.72 198.75-26.52L198.75-26.52L198.75-26.52Q198.44-25.31 197.97-24.08L197.97-24.08L197.97-24.08Q197.50-22.84 196.97-21.69L196.97-21.69L196.97-21.69Q195.72-19 195.42-18.39L195.42-18.39L195.42-18.39Q195.13-17.78 195.25-17.94L195.25-17.94L195.25-17.94Q200.97-25.34 202.13-26.69L202.13-26.69L202.13-26.69Q204.53-29.47 205.88-30.50L205.88-30.50L205.88-30.50Q208.34-32.34 210.55-32.34L210.55-32.34L210.55-32.34Q212.75-32.34 214.06-30.97L214.06-30.97L214.06-30.97Q215.38-29.59 215.38-27.34L215.38-27.34L215.38-27.34Q215.38-25.38 214.38-22.72L214.38-22.72L214.38-22.72Q213.38-20.06 213.03-19L213.03-19L217.63-25.06L220.19-28.13L220.19-28.13Q222.50-30.72 224.25-31.53L224.25-31.53L224.25-31.53Q226-32.34 227.11-32.34L227.11-32.34L227.11-32.34Q228.22-32.34 229.30-31.94L229.30-31.94L229.30-31.94Q230.38-31.53 231.13-30.78L231.13-30.78L231.13-30.78Q232.72-29.25 232.72-26.72L232.72-26.72L232.72-26.72Q232.72-24.28 231.59-21.72L231.59-21.72L231.59-21.72Q230.47-19.16 229.63-17.52L229.63-17.52L229.63-17.52Q228.78-15.88 228-14.22L228-14.22L228-14.22Q225.72-9.25 225.72-6.84L225.72-6.84L225.72-6.84Q225.72-5.16 227.09-5.16L227.09-5.16L227.09-5.16Q228.41-5.16 229.48-5.72L229.48-5.72L229.48-5.72Q230.56-6.28 230.88-6.28L230.88-6.28L230.88-6.28Q231.53-6.28 231.53-5.63L231.53-5.63L231.53-5.63Q231.53-2.84 228.69-0.97L228.69-0.97L228.69-0.97Q226.78 0.31 225.20 0.31L225.20 0.31L225.20 0.31Q223.63 0.31 222.66-0.06L222.66-0.06L222.66-0.06Q221.69-0.44 220.91-1.25L220.91-1.25L220.91-1.25Q219.16-3.06 219.16-5.78L219.16-5.78L219.16-5.78Q219.16-8.50 219.84-10.78L219.84-10.78L219.84-10.78Q220.53-13.06 221.47-15.20L221.47-15.20L221.47-15.20Q222.41-17.34 223.36-19.14L223.36-19.14L223.36-19.14Q224.31-20.94 224.81-22L224.81-22L224.81-22Q225.81-24.19 225.81-25.22L225.81-25.22L225.81-25.22Q225.81-26.44 224.53-26.44L224.53-26.44L224.53-26.44Q222.84-26.44 218.47-20.84L218.47-20.84L218.47-20.84Q215.16-16.50 213.88-14.59L213.88-14.59L211.72-11.47L211.72-11.47Q209.91-8.03 208.94-5.75L208.94-5.75L207.34-2.13L207.34-2.13Q206.75-0.78 206.31-0.23L206.31-0.23L206.31-0.23Q205.88 0.31 205.09 0.31L205.09 0.31L205.09 0.31Q204.31 0.31 203.58 0.06L203.58 0.06L203.58 0.06Q202.84-0.19 202.31-0.59L202.31-0.59L202.31-0.59Q201.09-1.50 201.09-2.52L201.09-2.52L201.09-2.52Q201.09-3.53 201.77-5.30L201.77-5.30L201.77-5.30Q202.44-7.06 203.44-9.25L203.44-9.25L207.81-18.50L207.81-18.50Q210.16-23.66 210.16-25.05L210.16-25.05L210.16-25.05Q210.16-26.44 208.88-26.44ZM211.97-17.63L211.97-17.63L211.97-17.63Q212-17.63 212-17.66L212-17.66L212.03-17.72L212.03-17.72Q211.97-17.66 211.97-17.63Z" fill="url(#editing-gradient-gradient)"></path></g></g><style>text {
  font-size: 64px;
  font-family: Arial Black;
  dominant-baseline: central;
  text-anchor: middle;
}</style></svg>